<svg width="15" height="28" viewBox="0 0 15 28" fill="none" xmlns="http://www.w3.org/2000/svg">
<g clip-path="url(#clip0_119_763)">
<path d="M14.9922 12.4559L14.6409 15.1186C14.5816 15.5641 14.1829 15.8984 13.7105 15.8984H9.14546V27.0304C8.66373 27.072 8.17608 27.092 7.68334 27.092C6.58104 27.092 5.50414 26.988 4.46364 26.7896V15.8984H0.952692C0.630129 15.8984 0.367676 15.6488 0.367676 15.3433V12.012C0.367676 11.7073 0.630975 11.457 0.952692 11.457H4.46364V6.46044C4.46364 3.39311 7.08394 0.908051 10.3163 0.908051H14.4123C14.7349 0.908051 14.9973 1.1576 14.9973 1.46313V4.79441C14.9973 5.09914 14.734 5.34948 14.4123 5.34948H11.4864C10.1944 5.34948 9.14631 6.34367 9.14631 7.5706V11.457H14.0618C14.6257 11.457 15.0625 11.9265 14.9922 12.4567V12.4559Z" fill="#8CADD5"/>
</g>
<defs>
<clipPath id="clip0_119_763">
<rect width="14.6322" height="26.1839" fill="white" transform="translate(0.367676 0.908051)"/>
</clipPath>
</defs>
</svg>
