<?xml version="1.0" encoding="UTF-8"?>
<!DOCTYPE svg PUBLIC "-//W3C//DTD SVG 1.1//EN" "http://www.w3.org/Graphics/SVG/1.1/DTD/svg11.dtd">
<!-- Creator: CorelDRAW 2020 (64-Bit) -->
<svg xmlns="http://www.w3.org/2000/svg" xml:space="preserve" width="24.5533mm" height="24.5532mm" version="1.1" style="shape-rendering:geometricPrecision; text-rendering:geometricPrecision; image-rendering:optimizeQuality; fill-rule:evenodd; clip-rule:evenodd"
viewBox="0 0 1970.35 1970.34"
 xmlns:xlink="http://www.w3.org/1999/xlink"
 xmlns:xodm="http://www.corel.com/coreldraw/odm/2003">
 <defs>
  <style type="text/css">
   <![CDATA[
    .fil0 {fill:#32416C}
    .fil1 {fill:white;fill-rule:nonzero}
   ]]>
  </style>
 </defs>
 <g id="Layer_x0020_1">
  <metadata id="CorelCorpID_0Corel-Layer"/>
  <circle class="fil0" cx="985.18" cy="985.17" r="985.18"/>
  <path class="fil1" d="M985.17 449.23c84.77,0 161.54,34.38 217.09,89.93 55.56,55.56 89.93,132.32 89.93,217.09 0,84.77 -34.38,161.54 -89.93,217.09 -55.56,55.55 -132.32,89.93 -217.09,89.93 -84.77,0 -161.54,-34.38 -217.09,-89.93 -55.55,-55.55 -89.93,-132.31 -89.93,-217.09 0,-84.77 34.38,-161.54 89.93,-217.09 55.56,-55.55 132.32,-89.93 217.09,-89.93zm181.06 125.96c-46.33,-46.32 -110.35,-74.98 -181.06,-74.98 -70.71,0 -134.74,28.66 -181.06,74.98 -46.32,46.33 -74.98,110.36 -74.98,181.06 0,70.71 28.66,134.74 74.98,181.06 46.33,46.33 110.35,74.99 181.06,74.99 70.71,0 134.74,-28.66 181.06,-74.98 46.33,-46.33 74.99,-110.35 74.99,-181.06 0,-70.71 -28.66,-134.74 -74.99,-181.06z"/>
  <path class="fil1" d="M1029.03 593.46c9.07,-10.71 25.13,-12.05 35.84,-2.99 10.71,9.07 12.05,25.13 2.99,35.84 -29.15,34.5 -65.21,61.74 -105.27,80.34 -40.07,18.59 -84.1,28.57 -129.21,28.57 -22.32,0 -44.79,-2.54 -66.99,-7.5 -22.08,-4.94 -43.55,-12.27 -63.91,-21.87 -12.7,-5.99 -18.13,-21.15 -12.14,-33.84 5.99,-12.7 21.15,-18.13 33.84,-12.14 17.17,8.09 35,14.22 53.16,18.27 18.06,4.04 36.87,6.11 56.05,6.11 37.78,0 74.55,-8.31 107.91,-23.79 33.35,-15.48 63.42,-38.21 87.74,-67z"/>
  <path class="fil1" d="M1247.13 667.12c14.08,0 25.49,11.41 25.49,25.49 0,14.08 -11.41,25.49 -25.49,25.49 -71.3,0 -137.95,-24.61 -190.85,-66.6 -52.85,-41.95 -91.94,-101.28 -108.13,-170.74 -3.19,-13.69 5.33,-27.37 19.02,-30.56 13.69,-3.19 27.37,5.33 30.56,19.02 13.51,57.97 46.11,107.48 90.2,142.46 44.03,34.96 99.63,55.44 159.2,55.44z"/>
  <path class="fil1" d="M890.05 1012.3l190.26 0c105.45,0 201.17,43 270.52,112.36 69.35,69.35 112.36,165.09 112.36,270.52 0,64.51 -127.52,103.17 -290.72,117.84 -59.86,5.38 -123.97,8.07 -187.28,8.07 -63.32,0 -127.42,-2.7 -187.29,-8.07 -163.2,-14.67 -290.72,-53.32 -290.72,-117.84 0,-105.45 43,-201.17 112.36,-270.52 69.34,-69.35 165.08,-112.36 270.52,-112.36zm190.26 50.96l-190.26 0c-91.39,0 -174.39,37.29 -234.51,97.41 -60.13,60.13 -97.41,143.11 -97.41,234.51 0,31.9 107.09,54.96 244.15,67.28 56.9,5.11 119.53,7.67 182.91,7.67 63.37,0 126.01,-2.56 182.9,-7.67 137.06,-12.32 244.15,-35.39 244.15,-67.28 0,-91.39 -37.28,-174.38 -97.41,-234.51 -60.13,-60.13 -143.11,-97.41 -234.51,-97.41z"/>
  <path class="fil1" d="M1197.64 1066.56c-23.33,34.43 -54.84,62.94 -91.75,82.69 -36.09,19.31 -77.21,30.26 -120.72,30.26 -43.5,0 -84.64,-10.96 -120.72,-30.27 -37.34,-19.97 -69.17,-48.92 -92.55,-83.9 -7.8,-11.65 -4.68,-27.44 6.97,-35.24 2.3,-1.53 4.75,-2.65 7.27,-3.35 16.62,-4.73 33.76,-8.35 51.32,-10.78 17.5,-2.42 35.08,-3.68 52.59,-3.68l190.26 0c17.51,0 35.08,1.26 52.59,3.68 17.56,2.42 34.7,6.04 51.33,10.75 13.52,3.79 21.4,17.83 17.61,31.35 -0.88,3.16 -2.34,6.01 -4.2,8.48zm-115.65 37.89c18.42,-9.85 35.17,-22.46 49.73,-37.26l-5.79 -0.86c-14.59,-2.01 -29.83,-3.07 -45.62,-3.07l-190.26 0c-15.79,0 -31.02,1.05 -45.62,3.07l-5.81 0.86c14.55,14.8 31.31,27.4 49.73,37.25 28.71,15.36 61.69,24.09 96.83,24.09 35.14,0 68.11,-8.72 96.82,-24.08z"/>
 </g>
</svg>
