<?xml version="1.0" encoding="UTF-8"?>
<!DOCTYPE svg PUBLIC "-//W3C//DTD SVG 1.1//EN" "http://www.w3.org/Graphics/SVG/1.1/DTD/svg11.dtd">
<!-- Creator: CorelDRAW 2020 (64-Bit) -->
<svg xmlns="http://www.w3.org/2000/svg" xml:space="preserve" width="24.5533mm" height="24.5533mm" version="1.1" style="shape-rendering:geometricPrecision; text-rendering:geometricPrecision; image-rendering:optimizeQuality; fill-rule:evenodd; clip-rule:evenodd"
viewBox="0 0 2002.19 2002.19"
 xmlns:xlink="http://www.w3.org/1999/xlink"
 xmlns:xodm="http://www.corel.com/coreldraw/odm/2003">
 <defs>
  <style type="text/css">
   <![CDATA[
    .fil0 {fill:#576A99}
    .fil1 {fill:white;fill-rule:nonzero}
   ]]>
  </style>
 </defs>
 <g id="Layer_x0020_1">
  <metadata id="CorelCorpID_0Corel-Layer"/>
  <circle class="fil0" cx="1001.1" cy="1001.1" r="1001.1"/>
  <path class="fil1" d="M904.43 1028.66l193.33 0c107.15,0 204.42,43.7 274.9,114.17 70.47,70.47 114.17,167.75 114.17,274.9 0,65.55 -129.58,104.83 -295.42,119.74 -60.83,5.46 -125.97,8.2 -190.31,8.2 -64.35,0 -129.48,-2.74 -190.32,-8.2 -165.84,-14.91 -295.42,-54.19 -295.42,-119.74 0,-107.15 43.7,-204.42 114.17,-274.9 70.47,-70.47 167.75,-114.17 274.9,-114.17zm193.33 51.78l-193.33 0c-92.87,0 -177.2,37.89 -238.3,98.99 -61.1,61.1 -98.99,145.43 -98.99,238.3 0,32.41 108.82,55.85 248.09,68.37 57.82,5.19 121.46,7.8 185.87,7.8 64.4,0 128.05,-2.6 185.86,-7.8 139.27,-12.52 248.09,-35.96 248.09,-68.37 0,-92.86 -37.89,-177.2 -98.99,-238.3 -61.1,-61.1 -145.43,-98.99 -238.3,-98.99z"/>
  <path class="fil1" d="M1001.1 456.5c86.13,0 164.13,34.93 220.59,91.39 56.45,56.45 91.39,134.45 91.39,220.59 0,86.14 -34.93,164.14 -91.39,220.59 -56.45,56.45 -134.45,91.39 -220.59,91.39 -86.14,0 -164.14,-34.93 -220.59,-91.39 -56.45,-56.45 -91.39,-134.45 -91.39,-220.59 0,-86.14 34.93,-164.13 91.39,-220.59 56.45,-56.45 134.46,-91.39 220.59,-91.39zm183.99 127.98c-47.08,-47.08 -112.14,-76.2 -183.99,-76.2 -71.86,0 -136.92,29.13 -184,76.2 -47.08,47.08 -76.2,112.13 -76.2,183.99 0,71.86 29.13,136.92 76.2,183.99 47.08,47.08 112.14,76.2 184,76.2 71.86,0 136.91,-29.13 183.99,-76.2 47.08,-47.07 76.2,-112.13 76.2,-183.99 0,-71.86 -29.13,-136.91 -76.2,-183.99z"/>
  <path class="fil1" d="M1261.29 768.47c0,-14.29 11.6,-25.89 25.89,-25.89 14.29,0 25.89,11.6 25.89,25.89l0 339.63c0,14.29 -11.6,25.89 -25.89,25.89 -14.29,0 -25.89,-11.6 -25.89,-25.89l0 -339.63zm-520.39 339.63c0,14.29 -11.6,25.89 -25.89,25.89 -14.29,0 -25.89,-11.6 -25.89,-25.89l0 -339.63c0,-14.29 11.6,-25.89 25.89,-25.89 14.29,0 25.89,11.6 25.89,25.89l0 339.63z"/>
  <path class="fil1" d="M1102.58 505.06c3.79,-13.73 18.01,-21.79 31.75,-18 13.73,3.79 21.79,18.01 18,31.75 -18.79,67.4 -58.93,124.48 -111.86,164.66 -53,40.24 -118.72,63.61 -188.6,63.61 -23.65,0 -47.29,-2.74 -70.45,-8.11 -22.91,-5.31 -45.36,-13.3 -66.84,-23.84 -12.79,-6.25 -18.09,-21.7 -11.83,-34.49 6.25,-12.79 21.7,-18.09 34.49,-11.83 17.7,8.68 36.42,15.32 55.72,19.79 19.1,4.44 38.88,6.69 58.92,6.69 58.53,0 113.4,-19.43 157.45,-52.88 44.12,-33.5 77.59,-81.1 93.27,-137.36z"/>
  <path class="fil1" d="M1279.3 677.93c14.24,-0.22 25.97,11.14 26.19,25.38 0.22,14.24 -11.14,25.97 -25.38,26.19 -0.51,0.01 -7.81,0.02 -7.81,0.19 -41.19,0 -81.67,-8.24 -119.23,-23.78 -37.51,-15.52 -71.97,-38.34 -101.16,-67.5 -10.1,-10.05 -10.14,-26.4 -0.1,-36.5 10.05,-10.1 26.4,-10.14 36.5,-0.1 24.42,24.41 53.17,43.47 84.37,56.38 31.14,12.88 64.96,19.72 99.61,19.72l0 0.11 7 -0.08z"/>
  <path class="fil1" d="M1216.99 1083.8c-23.69,35 -55.72,63.96 -93.22,84.02 -36.67,19.62 -78.46,30.75 -122.67,30.75 -44.21,0 -86.01,-11.13 -122.68,-30.75 -37.95,-20.3 -70.28,-49.71 -94.05,-85.26 -7.93,-11.84 -4.75,-27.88 7.09,-35.81 2.33,-1.56 4.83,-2.69 7.39,-3.41 16.89,-4.81 34.31,-8.49 52.15,-10.95 17.78,-2.45 35.64,-3.73 53.44,-3.73l193.33 0c17.79,0 35.65,1.28 53.44,3.73 17.84,2.46 35.26,6.14 52.16,10.93 13.74,3.85 21.75,18.12 17.9,31.86 -0.9,3.21 -2.36,6.11 -4.26,8.61zm-117.51 38.51c18.72,-10.01 35.75,-22.82 50.53,-37.85l-5.9 -0.87c-14.82,-2.05 -30.31,-3.12 -46.36,-3.12l-193.33 0c-16.05,0 -31.53,1.07 -46.36,3.12l-5.9 0.87c14.78,15.04 31.81,27.84 50.53,37.85 29.18,15.61 62.68,24.47 98.4,24.47 35.71,0 69.21,-8.86 98.38,-24.47z"/>
 </g>
</svg>
