<svg width="42" height="38" viewBox="0 0 42 38" fill="none" xmlns="http://www.w3.org/2000/svg">
<g clip-path="url(#clip0_119_1520)">
<path fill-rule="evenodd" clip-rule="evenodd" d="M3.29541 33.3614C2.69116 33.3614 2.19678 32.867 2.19678 32.2627V16.2886C2.19678 15.6843 2.69116 15.1899 3.29541 15.1899C3.89966 15.1899 4.39405 15.6843 4.39405 16.2886V32.2627C4.39405 32.867 3.89966 33.3614 3.29541 33.3614ZM38.8253 33.3614C38.2211 33.3614 37.7267 32.867 37.7267 32.2627V16.2886C37.7267 15.6843 38.2211 15.1899 38.8253 15.1899C39.4296 15.1899 39.9239 15.6843 39.9239 16.2886V32.2627C39.9239 32.867 39.4296 33.3614 38.8253 33.3614Z" fill="white"/>
<path fill-rule="evenodd" clip-rule="evenodd" d="M38.0011 13.0696C37.3968 13.0696 36.9024 12.5752 36.9024 11.9709V8.77389L21.0601 2.62153L5.21778 8.77389V11.9709C5.21778 12.5752 4.72339 13.0696 4.11914 13.0696C3.51489 13.0696 3.02051 12.5752 3.02051 11.9709V8.01583C3.02051 7.56539 3.29517 7.14791 3.72363 6.98311L20.6646 0.413269C20.9173 0.314392 21.2029 0.314392 21.4666 0.413269L38.4076 6.98311C38.836 7.14791 39.1107 7.5544 39.1107 8.01583V11.9709C39.1107 12.5862 38.6163 13.0805 38.0011 13.0805V13.0696Z" fill="white"/>
<path fill-rule="evenodd" clip-rule="evenodd" d="M3.70118 15.19H38.4071V13.0806H3.70118V15.19ZM39.5167 17.3982H2.60254C1.99829 17.3982 1.50391 16.9038 1.50391 16.2996V11.9819C1.50391 11.3777 1.99829 10.8833 2.60254 10.8833H39.5167C40.121 10.8833 40.6153 11.3777 40.6153 11.9819V16.2996C40.6153 16.9038 40.121 17.3982 39.5057 17.3982H39.5167Z" fill="white"/>
<path fill-rule="evenodd" clip-rule="evenodd" d="M2.32838 35.4815H39.7919V33.3721H2.32838V35.4815ZM40.8905 37.6897H1.21875C0.614503 37.6897 0.120117 37.1953 0.120117 36.5911V32.2734C0.120117 31.6692 0.614503 31.1748 1.21875 31.1748H40.8905C41.4947 31.1748 41.9891 31.6692 41.9891 32.2734V36.5911C41.9891 37.1953 41.4947 37.6897 40.8905 37.6897Z" fill="white"/>
<path fill-rule="evenodd" clip-rule="evenodd" d="M25.8391 33.3616C25.2239 33.3616 24.7295 32.8672 24.7295 32.263V25.2976C24.7295 23.2761 23.0816 21.6172 21.0491 21.6172C19.0166 21.6172 17.3687 23.2651 17.3687 25.2976V32.263C17.3687 32.8672 16.8743 33.3616 16.27 33.3616C15.6658 33.3616 15.1714 32.8672 15.1714 32.263V25.2976C15.1714 22.0566 17.8081 19.4199 21.0491 19.4199C24.2901 19.4199 26.9268 22.0566 26.9268 25.2976V32.263C26.9268 32.8672 26.4324 33.3616 25.8282 33.3616H25.8391Z" fill="white"/>
<path fill-rule="evenodd" clip-rule="evenodd" d="M33.5186 33.3614C32.9143 33.3614 32.4199 32.867 32.4199 32.2627V16.2886C32.4199 15.6843 32.9143 15.1899 33.5186 15.1899C34.1228 15.1899 34.6172 15.6843 34.6172 16.2886V32.2627C34.6172 32.867 34.1228 33.3614 33.5186 33.3614Z" fill="white"/>
<path fill-rule="evenodd" clip-rule="evenodd" d="M8.60157 33.3614C7.99732 33.3614 7.50293 32.867 7.50293 32.2627V16.2886C7.50293 15.6843 7.99732 15.1899 8.60157 15.1899C9.20582 15.1899 9.7002 15.6843 9.7002 16.2886V32.2627C9.7002 32.867 9.20582 33.3614 8.60157 33.3614Z" fill="white"/>
</g>
<defs>
<clipPath id="clip0_119_1520">
<rect width="41.88" height="37.3536" fill="white" transform="translate(0.120117 0.336426)"/>
</clipPath>
</defs>
</svg>
