<svg width="27" height="28" viewBox="0 0 27 28" fill="none" xmlns="http://www.w3.org/2000/svg">
<g clip-path="url(#clip0_119_759)">
<path d="M19.864 0.908051H6.31989C2.83102 0.908051 0 3.7382 0 7.22794V20.7712C0 24.2609 2.83102 27.0911 6.31989 27.0911H19.8631C23.3529 27.0911 26.183 24.2601 26.183 20.7712V7.22794C26.1839 3.7382 23.3538 0.908051 19.864 0.908051ZM23.9266 20.3208C23.9266 22.8124 21.9044 24.8355 19.4118 24.8355H6.77206C4.28038 24.8355 2.25735 22.8133 2.25735 20.3208V7.68011C2.25735 5.18843 4.27951 3.1654 6.77206 3.1654H19.4127C21.9044 3.1654 23.9274 5.18756 23.9274 7.68011V20.3208H23.9266Z" fill="#8CADD5"/>
<path d="M13.0921 7.22797C9.35417 7.22797 6.32007 10.2621 6.32007 14C6.32007 17.738 9.35417 20.7721 13.0921 20.7721C16.8301 20.7721 19.8642 17.738 19.8642 14C19.8642 10.2621 16.8301 7.22797 13.0921 7.22797ZM13.0921 18.5147C10.6048 18.5147 8.57742 16.4874 8.57742 14C8.57742 11.5127 10.6048 9.48532 13.0921 9.48532C15.5795 9.48532 17.6068 11.5127 17.6068 14C17.6068 16.4874 15.5795 18.5147 13.0921 18.5147Z" fill="#8CADD5"/>
<path d="M20.3152 8.13145C19.5688 8.13145 18.9604 7.52394 18.9604 6.7767C18.9604 6.02945 19.568 5.42194 20.3152 5.42194C21.0625 5.42194 21.67 6.02945 21.67 6.7767C21.67 7.52394 21.0625 8.13145 20.3152 8.13145Z" fill="#8CADD5"/>
</g>
<defs>
<clipPath id="clip0_119_759">
<rect width="26.1839" height="26.1839" fill="white" transform="translate(0 0.908051)"/>
</clipPath>
</defs>
</svg>
