<?xml version="1.0" encoding="UTF-8"?>
<svg id="objects" xmlns="http://www.w3.org/2000/svg" xmlns:i="http://ns.adobe.com/AdobeIllustrator/10.0/" version="1.1" viewBox="0 0 397.7 398.3">
  <!-- Generator: Adobe Illustrator 29.6.1, SVG Export Plug-In . SVG Version: 2.1.1 Build 9)  -->
  <path d="M198.7.6h0C89,.6,0,89.5,0,199.2H0c0,109.7,89,198.7,198.7,198.7h0c109.7,0,198.7-89,198.7-198.7h0C397.4,89.5,308.5.6,198.7.6ZM303,253.1c0,27.8-22.5,50.3-50.3,50.3h-107.8c-27.8,0-50.3-22.5-50.3-50.3v-107.8c0-27.8,22.5-50.3,50.3-50.3h107.8c27.8,0,50.3,22.5,50.3,50.3v107.8Z" fill="#121214"/>
  <path d="M249.1,113h-100.6c-19.8,0-35.9,16.1-35.9,35.9v100.6c0,19.8,16.1,35.9,35.9,35.9h100.6c19.8,0,35.9-16.1,35.9-35.9v-100.6c0-19.8-16.1-35.9-35.9-35.9ZM198.8,253.1c-29.8,0-53.9-24.1-53.9-53.9s24.1-53.9,53.9-53.9,53.9,24.1,53.9,53.9-24.1,53.9-53.9,53.9ZM256.3,152.5c-5.9,0-10.8-4.8-10.8-10.8s4.8-10.8,10.8-10.8,10.8,4.8,10.8,10.8-4.8,10.8-10.8,10.8Z" fill="#121214"/>
  <path d="M198.8,163.3c-19.8,0-35.9,16.1-35.9,35.9s16.1,35.9,35.9,35.9,35.9-16.1,35.9-35.9-16.1-35.9-35.9-35.9Z" fill="#121214"/>
</svg>