<svg width="230" height="63" viewBox="0 0 230 63" fill="none" xmlns="http://www.w3.org/2000/svg">
<g clip-path="url(#clip0_119_722)">
<path d="M72.7595 53.0924C88.2824 53.0924 100.872 53.7697 100.872 54.6088C100.872 55.4479 88.2824 56.1252 72.7595 56.1252C57.2366 56.1252 44.6471 55.4479 44.6471 54.6088C44.6471 53.7697 57.2306 53.0924 72.7595 53.0924Z" fill="#8CADD5"/>
<path d="M72.7595 61.2318C77.2134 61.2318 80.8233 61.5375 80.8233 61.9211C80.8233 62.3047 77.2134 62.6104 72.7595 62.6104C68.3056 62.6104 64.6957 62.3047 64.6957 61.9211C64.6957 61.5375 68.3056 61.2318 72.7595 61.2318Z" fill="#8CADD5"/>
<path d="M72.7595 57.5517C81.5177 57.5517 88.6117 58.0672 88.6117 58.7025C88.6117 59.3378 81.5117 59.8533 72.7595 59.8533C64.0013 59.8533 56.9073 59.3378 56.9073 58.7025C56.9073 58.0672 64.0073 57.5517 72.7595 57.5517Z" fill="#8CADD5"/>
<path d="M62.8758 53.9615H82.6431C83.6309 53.9615 84.481 53.482 85.0018 52.6309L87.5461 48.4532H57.9849L60.5232 52.6309C61.038 53.482 61.8941 53.9615 62.8818 53.9615" fill="#32416C"/>
<path d="M44.8206 7.77985C45.8084 7.77985 46.6585 7.30634 47.1793 6.46123L51.1543 0.0299683H46.0658C45.0242 0.0299683 44.1382 0.557416 43.6353 1.46846L42.2405 4.0098L40.0135 0.0299683H33.2847L38.0739 7.77985H44.8206Z" fill="white"/>
<path d="M119.071 13.8934V44.0958H126.344C127.871 44.0958 129.122 42.8491 129.122 41.3147V11.1183H121.849C120.322 11.1183 119.071 12.365 119.071 13.8994" fill="white"/>
<path d="M0 13.8935V19.2099H8.6684V44.1018H15.942C17.4685 44.1018 18.7197 42.8551 18.7197 41.3207V19.2099H24.6104C26.1369 19.2099 27.3881 17.9632 27.3881 16.4288V11.1124H2.77772C1.25117 11.1124 0 12.3591 0 13.8935Z" fill="white"/>
<path d="M129.116 4.99876V0.0239749L121.855 0C121.088 0 120.43 0.269717 119.885 0.809152C119.34 1.34859 119.071 2.0079 119.071 2.77509V7.77386H126.344C127.871 7.77386 129.122 6.52716 129.122 4.99277" fill="white"/>
<path d="M84.1996 30.2263C84.3193 30.0825 85.2652 29.2014 85.379 29.0516C86.7618 27.2055 87.552 24.85 87.552 22.1828C87.552 15.8114 82.9425 11.1183 76.6148 11.1183H68.0721L70.766 18.8143C71.5442 18.2449 72.4961 17.9092 73.5317 17.9092C76.1239 17.9092 78.2311 20.013 78.2311 22.6143C78.2311 25.1437 76.2376 27.2055 73.7413 27.3134L79.614 44.1078H85.0258C85.9477 44.1078 86.7439 43.7002 87.2827 42.945C87.8214 42.1958 87.9531 41.3087 87.6538 40.4336C86.6421 37.4548 86.0674 35.7765 84.2056 30.2383" fill="white"/>
<path d="M67.1681 12.1133V11.1183H58.6255V44.1018H64.4862C66.0128 44.1018 67.2699 42.8551 67.2639 41.3207L67.1622 12.1193V12.1073L67.1681 12.1133Z" fill="white"/>
<path d="M102.668 11.1183H95.3943C93.8678 11.1183 92.6166 12.365 92.6166 13.8994V44.0958H112.869C114.395 44.0958 115.647 42.8491 115.647 41.3147V35.8724H102.662V11.1183H102.668Z" fill="white"/>
<path d="M44.8206 7.77985C45.8084 7.77985 46.6585 7.30634 47.1793 6.46123L51.1543 0.0299683H46.0658C45.0242 0.0299683 44.1382 0.557416 43.6353 1.46846L42.2405 4.0098L40.0135 0.0299683H33.2847L38.0739 7.77985H44.8206Z" fill="#32416C"/>
<path d="M29.9084 13.8934V44.0958H51.759C53.2855 44.0958 54.5367 42.8491 54.5367 41.3147V35.9983H39.9597V31.7427H49.7056C51.2322 31.7427 52.4833 30.496 52.4833 28.9616V23.7411H39.9597V19.2039H51.765C53.2915 19.2039 54.5427 17.9572 54.5427 16.4228V11.1064H32.6921C31.1655 11.1064 29.9144 12.353 29.9144 13.8874" fill="#32416C"/>
<path d="M212.28 10.8906C202.57 10.8906 195.081 18.149 195.081 27.6131C195.081 37.0652 202.564 44.3236 212.28 44.3236C221.99 44.3236 229.479 37.0652 229.479 27.6131C229.479 18.149 221.996 10.8906 212.28 10.8906ZM212.28 36.1062C208.143 36.1062 205.132 32.5819 205.132 27.6131C205.132 22.6443 208.143 19.108 212.28 19.108C216.417 19.108 219.428 22.6323 219.428 27.6131C219.428 32.5819 216.411 36.1062 212.28 36.1062Z" fill="#32416C"/>
<path d="M196.47 11.1183H185.245L176.852 25.4973V11.1183H169.579C168.052 11.1183 166.801 12.365 166.801 13.8994V44.1018H174.074C175.601 44.1018 176.852 42.8551 176.852 41.3207V29.4471L185.245 44.1018H196.47L186.431 27.4632L196.47 11.1183Z" fill="#32416C"/>
<path d="M149.925 19.108C152.727 19.108 154.99 20.5764 156.241 22.9439L163.82 17.3278C160.695 13.372 155.72 10.8846 149.925 10.8846C139.993 10.8846 132.51 18.143 132.51 27.6011C132.51 37.0592 139.993 44.3176 149.925 44.3176C155.72 44.3176 160.695 41.8302 163.82 37.8743L156.241 32.2582C154.99 34.6257 152.727 36.0942 149.925 36.0942C145.561 36.0942 142.556 32.5759 142.556 27.5951C142.556 22.6143 145.561 19.096 149.925 19.096" fill="#32416C"/>
<path d="M119.071 13.8934V44.0958H126.344C127.871 44.0958 129.122 42.8491 129.122 41.3147V11.1183H121.849C120.322 11.1183 119.071 12.365 119.071 13.8994" fill="#32416C"/>
<path d="M0 13.8935V19.2099H8.6684V44.1018H15.942C17.4685 44.1018 18.7197 42.8551 18.7197 41.3207V19.2099H24.6104C26.1369 19.2099 27.3881 17.9632 27.3881 16.4288V11.1124H2.77772C1.25117 11.1124 0 12.3591 0 13.8935Z" fill="#32416C"/>
<path d="M129.116 4.99876V0.0239749L121.855 0C121.088 0 120.43 0.269717 119.885 0.809152C119.34 1.34859 119.071 2.0079 119.071 2.77509V7.77386H126.344C127.871 7.77386 129.122 6.52716 129.122 4.99277" fill="#32416C"/>
<path d="M67.1681 12.1133V11.1183H58.6255V44.1018H64.4862C66.0128 44.1018 67.2699 42.8551 67.2639 41.3207L67.1622 12.1193V12.1073L67.1681 12.1133Z" fill="#32416C"/>
<path d="M102.668 11.1183H95.3943C93.8678 11.1183 92.6166 12.365 92.6166 13.8994V44.0958H112.869C114.395 44.0958 115.647 42.8491 115.647 41.3147V35.8724H102.662V11.1183H102.668Z" fill="#32416C"/>
<path d="M84.1996 30.2263C84.3193 30.0825 85.2652 29.2014 85.379 29.0516C86.7618 27.2055 87.552 24.85 87.552 22.1828C87.552 15.8114 82.9425 11.1183 76.6148 11.1183H68.0721L70.766 18.8143C71.5442 18.2449 72.4961 17.9092 73.5317 17.9092C76.1239 17.9092 78.2311 20.013 78.2311 22.6143C78.2311 25.1437 76.2376 27.2055 73.7413 27.3134L79.614 44.1078H85.0258C85.9477 44.1078 86.7439 43.7002 87.2827 42.945C87.8214 42.1958 87.9531 41.3087 87.6538 40.4336C86.6421 37.4548 86.0674 35.7765 84.2056 30.2383" fill="#32416C"/>
<path d="M70.766 18.8083L73.7353 27.3074C76.2316 27.1995 78.2251 25.1377 78.2251 22.6083C78.2251 20.079 76.1239 17.9033 73.5317 17.9033C72.4961 17.9033 71.5442 18.2389 70.766 18.8023" fill="#F7A941"/>
</g>
<defs>
<clipPath id="clip0_119_722">
<rect width="230" height="63" fill="white"/>
</clipPath>
</defs>
</svg>
