<?xml version="1.0" encoding="UTF-8"?>
<svg xmlns="http://www.w3.org/2000/svg" version="1.1" viewBox="0 0 383.7438 106.0578">
  <!-- Generator: Adobe Illustrator 28.6.0, SVG Export Plug-In . SVG Version: 1.2.0 Build 709)  -->
  <g>
    <g id="Vrstva_2">
      <path d="M74.9771,13.0106c1.6533,0,3.0742-.7919,3.9436-2.1979L85.5568.0791h-8.5002c-1.7354,0-3.2245.8797-4.0609,2.3986l-2.3347,4.2364L66.9532.0791h-11.2394l7.9954,12.9315s11.2679,0,11.2679,0Z" fill="#FFFFFF"/>
      <path d="M50.0673,23.217v50.3938h36.4995c2.5534,0,4.6364-2.0828,4.6364-4.6364v-8.8682h-24.3532v-7.1032h16.2815c2.5546,0,4.6374-2.0829,4.6374-4.6363v-8.711h-20.9189v-7.5716h19.7168c2.5534,0,4.6364-2.0829,4.6364-4.6364v-8.8671h-36.4983c-2.5547,0-4.6375,2.0829-4.6375,4.6364" fill="#FFFFFF"/>
      <path d="M354.7088,18.2032c-16.2222,0-28.7252,12.111-28.7251,27.9047,0,15.7675,12.503,27.8797,28.7252,27.8797s28.7252-12.1122,28.7251-27.8797c0-15.7937-12.5019-27.9047-28.7252-27.9047M354.7088,60.2757c-6.9084,0-11.9425-5.8806-11.9425-14.1677,0-8.3133,5.0341-14.1928,11.9425-14.1928s11.9435,5.8795,11.9435,14.1928c0,8.2871-5.0351,14.1678-11.9435,14.1678" fill="#FFFFFF"/>
      <path d="M328.3004,18.5805h-18.7483l-14.0231,23.9885v-23.9885h-12.1464c-2.5534,0-4.6364,2.0829-4.6364,4.6364v50.3939h12.1464c2.5535,0,4.6364-2.0829,4.6364-4.6364v-19.8091l14.0231,24.4455h18.7483l-16.7691-27.7635,16.7691-27.2667h0Z" fill="#FFFFFF"/>
      <path d="M250.555,31.9148c4.6842,0,8.4569,2.4452,10.5501,6.4003l12.6591-9.3662c-5.2174-6.5962-13.5297-10.746-23.2092-10.746-16.5868,0-29.0886,12.1122-29.0886,27.8922s12.5019,27.8923,29.0886,27.8923c9.6795,0,17.9917-4.1499,23.2092-10.7461l-12.6591-9.3662c-2.0931,3.9539-5.8659,6.4003-10.5501,6.4003-7.2856,0-12.3059-5.8669-12.3059-14.1803s5.0203-14.1803,12.3059-14.1803" fill="#FFFFFF"/>
      <path d="M199.0121,23.2169v50.3938h12.1452c2.5535,0,4.6375-2.0828,4.6375-4.6364V18.5806h-12.1464c-2.5534,0-4.6364,2.0828-4.6364,4.6364" fill="#FFFFFF"/>
      <path d="M.1103,23.217v8.8671h14.4799v41.5267h12.1464c2.5535,0,4.6364-2.0828,4.6364-4.6364v-36.8904h9.8424c2.5546,0,4.6375-2.0829,4.6375-4.6364v-8.8671H4.7477c-2.5546,0-4.6375,2.0829-4.6375,4.6364" fill="#FFFFFF"/>
      <path d="M215.794,8.3684V.0744l-12.1304-.0421c-1.2785-.0046-2.3814.449-3.2885,1.3525-.9069.9035-1.3638,2.0042-1.3638,3.2838v8.3361h12.1464c2.5534,0,4.6364-2.0818,4.6364-4.6364" fill="#FFFFFF"/>
      <path d="M112.3118,20.2373l-.0058-1.6568h-14.2599v55.0302h9.7934c2.5546,0,4.6455-2.0829,4.6375-4.6364l-.1653-48.7211v-.016h.0001Z" fill="#FFFFFF"/>
      <path d="M171.6151,18.5804h-12.1464c-2.5535,0-4.6364,2.0829-4.6364,4.6364v50.3801h33.8321c2.5535,0,4.6364-2.0829,4.6364-4.6364v-9.0756h-21.6857V18.5804Z" fill="#FFFFFF"/>
      <path d="M140.7636,50.4666c.2016-.2404,1.7775-1.7126,1.9655-1.9644,2.3074-3.0788,3.6337-7.0064,3.6337-11.4616,0-10.6287-7.7015-18.46-18.2652-18.46h-14.2691l4.4951,12.8369c1.2955-.9458,2.8919-1.5052,4.6193-1.5052,4.3321,0,7.8461,3.5129,7.8461,7.845,0,4.2193-3.3294,7.6581-7.5032,7.8382l9.8071,28.0152h9.0426c1.5428,0,2.8702-.6824,3.7692-1.9381.8978-1.2545,1.1155-2.7301.6188-4.192-1.6887-4.9668-2.6493-7.7675-5.7599-17.014" fill="#FFFFFF"/>
      <path d="M118.3234,31.4166l4.9634,14.1791c4.1737-.18,7.5009-3.62,7.5009-7.8371,0-4.3332-3.5117-7.8461-7.8439-7.8461-1.7274,0-3.3248.5583-4.6204,1.504" fill="#f7a941"/>
      <path d="M121.6474,88.6141c25.9346,0,46.9596,1.1303,46.9596,2.5272,0,1.3947-21.025,2.5261-46.9596,2.5262-25.9347,0-46.9584-1.1315-46.9584-2.5261,0-1.397,21.0237-2.5272,46.9584-2.5272" fill="#8cadd5"/>
      <path d="M121.6474,102.1919c7.4394,0,13.4704.5139,13.4704,1.1497,0,.6335-6.031,1.1485-13.4704,1.1485s-13.4705-.515-13.4705-1.1485c0-.6358,6.031-1.1497,13.4705-1.1497" fill="#8cadd5"/>
      <path d="M121.6474,96.0564c14.6257,0,26.4828.8592,26.4828,1.9177,0,1.0597-11.857,1.9188-26.4828,1.9188s-26.4816-.8591-26.4816-1.9188c0-1.0585,11.8558-1.9177,26.4816-1.9177" fill="#8cadd5"/>
      <path d="M105.1382,90.0619h33.0186c1.6533,0,3.073-.801,3.9379-2.2196l4.2456-6.9676h-49.3842l4.2444,6.9676c.8648,1.4187,2.2856,2.2196,3.9379,2.2196" fill="#FFFFFF"/>
    </g>
  </g>
</svg>