<?xml version="1.0" encoding="UTF-8"?>
<svg id="objects" xmlns="http://www.w3.org/2000/svg" xmlns:i="http://ns.adobe.com/AdobeIllustrator/10.0/" version="1.1" viewBox="0 0 397.7 398.3">
  <!-- Generator: Adobe Illustrator 29.6.1, SVG Export Plug-In . SVG Version: 2.1.1 Build 9)  -->
  <path d="M198.7.6h0C89,.6,0,89.5,0,199.2H0c0,109.7,89,198.7,198.7,198.7h0c109.7,0,198.7-89,198.7-198.7h0C397.4,89.5,308.5.6,198.7.6ZM315,252.8c0,16.9-13.7,30.6-30.6,30.6H113.1c-16.9,0-30.6-13.7-30.6-30.6v-107.1c0-16.9,13.7-30.6,30.6-30.6h171.2c16.9,0,30.6,13.7,30.6,30.6v107.1Z" fill="#121214"/>
  <path d="M226.2,191.9l-47.6-23.8c-5.5-2.7-12,1.2-12,7.4v47.6c0,6.1,6.5,10.1,12,7.4l47.6-23.8c6.1-3,6.1-11.7,0-14.8Z" fill="#121214"/>
</svg>